{"title":"American Horror Story S05E10 1080p WEB-DL DD5.1 H264-NTb[rartv]","uid":13022415,"size":1937803606,"categoryP":"video","categoryS":"hd___tv_shows","magnet":"?xt=urn:btih:0cb5a19960f3ef87d0f0567327d003acd876a7ee&amp;dn=American+Horror+Story+S05E10+1080p+WEB-DL+DD5.1+H264-NTb%5Brartv%5D&amp;tr=udp%3A%2F%2Ftracker.leechers-paradise.org%3A6969&amp;tr=udp%3A%2F%2Fzer0day.ch%3A1337&amp;tr=udp%3A%2F%2Fopen.demonii.com%3A1337&amp;tr=udp%3A%2F%2Ftracker.coppersurfer.tk%3A6969&amp;tr=udp%3A%2F%2Fexodus.desync.com%3A6969","seeders":1,"leechers":1,"uploader":"cheerfulcaca","files":3,"time":1450366991,"description":"SEASON 5, EPISODE 10 &quot;SHE GETS REVENGE&quot; SYNOPSIS:\r\n\r\nAlex enlists John's help in containing an outbreak; Donovan learns The Countess' true intentions; Liz and Iris plan to leave the hotel for good.\r\n\r\n\r\nSERIES INFO:\r\n\r\n8.3/10·IMDb\r\n8.6/10·TV.com\r\n\r\n&quot;American Horror Story&quot; was created by the co-creators of &quot;Glee,&quot; but the shows have little in common besides that. The show revolves around the Harmons, a family of three, who move from Boston to Los Angeles in order to reconcile past anguish. What the Harmons don't know is that the house they've moved into is haunted. But it's not haunted by Casperesque friendly ghosts -- it's haunted by demonic creatures. The creatures have a history of not only spooking the house's residents but also devouring them. After living in this house, family patriarch and psychiatrist, Ben, may need a shrink of his own.\r\n\r\n\r\nMEDIA INFO:\r\n\r\nGeneral:\r\n\r\nUnique ID                                : 190579794465959179121455109621162584855 (0x8F605552DE363A419D1136E6D6662B17)\r\nComplete name                            : American.Horror.Story.S05E10.She.Gets.Revenge.1080p.WEB-DL.DD5.1.H.264-NTb.mkv\r\nFormat                                   : Matroska\r\nFormat version                           : Version 4 / Version 2\r\nFile size                                : 1.80 GiB\r\nDuration                                 : 50mn 12s\r\nOverall bit rate                         : 5 145 Kbps\r\nEncoded date                             : UTC 2015-12-17 11:04:05\r\nWriting application                      : mkvmerge v8.5.1 ('Where you lead I will follow') 64bit\r\nWriting library                          : libebml v1.3.3 + libmatroska v1.4.4\r\nIsTruncated                              : Yes\r\n\r\nVideo:\r\n\r\nID                                       : 2\r\nFormat                                   : AVC\r\nFormat/Info                              : Advanced Video Codec\r\nFormat profile                           :   \r\nFormat settings, CABAC                   : Yes\r\nFormat settings, ReFrames                : 4 frames\r\nCodec ID                                 : V_MPEG4/ISO/AVC\r\nDuration                                 : 50mn 12s\r\nBit rate                                 : 4 659 Kbps\r\nWidth                                    : 1 920 pixels\r\nHeight                                   : 1 080 pixels\r\nDisplay aspect ratio                     : 16:9\r\nFrame rate mode                          : Constant\r\nFrame rate                               : 23.976 (24000/1001) fps\r\nColor space                              : YUV\r\nChroma subsampling                       : 4:2:0\r\nBit depth                                : 8 bits\r\nScan type                                : Progressive\r\nBits/(Pixel*Frame)                       : 0.094\r\nStream size                              : 1.63 GiB (91%)\r\nDefault                                  : Yes\r\nForced                                   : No\r\nColor range                              : Limited\r\nColor primaries                          : BT.709\r\nTransfer characteristics                 : BT.709\r\nMatrix coefficients                      : BT.709\r\n\r\nAudio:\r\n\r\nID                                       : 3\r\nFormat                                   : AC-3\r\nFormat/Info                              : Audio Coding 3\r\nMode extension                           : CM (complete main)\r\nFormat settings, Endianness              : Big\r\nCodec ID                                 : A_AC3\r\nDuration                                 : 50mn 12s\r\nBit rate mode                            : Constant\r\nBit rate                                 : 384 Kbps\r\nChannel(s)                               : 6 channels\r\nChannel positions                        : Front: L C R, Side: L R, LFE\r\nSampling rate                            : 48.0 KHz\r\nFrame rate                               : 31.250 fps (1536 spf)\r\nCompression mode                         : Lossy\r\nDelay relative to video                  : -15ms\r\nStream size                              : 138 MiB (7%)\r\nLanguage                                 : English\r\nDefault                                  : Yes\r\nForced                                   : No\r\n\r\nText:\r\n\r\nID                                       : 1\r\nFormat                                   : UTF-8\r\nCodec ID                                 : S_TEXT/UTF8\r\nCodec ID/Info                            : UTF-8 Plain Text\r\nLanguage                                 : English\r\nDefault                                  : Yes\r\nForced                                   : No\r\n\r\n \nhttps://rarbg.to","torrent":{"xt":"urn:btih:0cb5a19960f3ef87d0f0567327d003acd876a7ee","amp;dn":"American+Horror+Story+S05E10+1080p+WEB-DL+DD5.1+H264-NTb%5Brartv%5D","amp;tr":["udp%3A%2F%2Ftracker.leechers-paradise.org%3A6969","udp%3A%2F%2Fzer0day.ch%3A1337","udp%3A%2F%2Fopen.demonii.com%3A1337","udp%3A%2F%2Ftracker.coppersurfer.tk%3A6969","udp%3A%2F%2Fexodus.desync.com%3A6969"],"infoHash":"0cb5a19960f3ef87d0f0567327d003acd876a7ee","infoHashBuffer":{"type":"Buffer","data":[12,181,161,153,96,243,239,135,208,240,86,115,39,208,3,172,216,118,167,238]},"announce":[],"urlList":[]}}